<?xml version="1.0" encoding="UTF-8" standalone="no" ?>
<!DOCTYPE svg PUBLIC "-//W3C//DTD SVG 1.1//EN" "http://www.w3.org/Graphics/SVG/1.1/DTD/svg11.dtd">
<svg xmlns="http://www.w3.org/2000/svg" xmlns:xlink="http://www.w3.org/1999/xlink" version="1.1" width="40" height="40" viewBox="0 0 500 500" xml:space="preserve">
<desc>Created with Fabric.js 3.6.3</desc>
<defs>
</defs>
<rect x="50" y="50" width="400" height="400" fill="#00261C"></rect>
<g transform="matrix(1 0 0 1 250 329)" style=""  ><path fill="#ffffff" opacity="1" d="M-126.36-11.83L-126.36-11.83Q-125.86-11.83-125.23-12.02Q-124.60-12.21-124.03-12.66Q-123.47-13.11-123.07-13.84Q-122.68-14.56-122.68-15.63L-122.68-15.63Q-122.68-16.69-123.07-17.42Q-123.47-18.14-124.03-18.59Q-124.60-19.04-125.23-19.23Q-125.86-19.42-126.36-19.42L-126.36-19.42Q-126.81-19.42-127.29-19.35Q-127.78-19.28-128.13-19.18L-128.13-19.18L-128.13-12.07Q-127.78-11.98-127.29-11.91Q-126.81-11.83-126.36-11.83ZM-128.13-11.01L-128.13-4.61L-130.27-4.61L-130.27-17.40Q-130.27-18.47-130.56-19.12Q-130.86-19.77-131.93-19.77L-131.93-19.77L-132.40-19.77L-132.40-20.25L-126.24-20.25Q-125.48-20.25-124.46-20.11Q-123.44-19.96-122.52-19.48Q-121.59-18.99-120.95-18.04Q-120.31-17.10-120.31-15.51L-120.31-15.51Q-120.31-14.49-120.61-13.77Q-120.91-13.04-121.38-12.55Q-121.85-12.05-122.43-11.74Q-123.01-11.43-123.60-11.28Q-124.18-11.12-124.69-11.06Q-125.20-11.01-125.53-11.01L-125.53-11.01L-128.13-11.01Z"/><path fill="#ffffff" opacity="1" d="M-104.88-5.08L-104.88-4.61Q-105.29-4.49-105.83-4.49L-105.83-4.49Q-106.24-4.49-106.77-4.58Q-107.30-4.68-107.86-5.00Q-108.42-5.32-108.95-5.93Q-109.48-6.55-109.86-7.57L-109.86-7.57L-110.45-9.11L-117.09-9.11L-118.99-4.61L-120.05-4.61L-113.42-20.25L-112.71-20.25L-107.49-7.57Q-107.21-6.91-106.96-6.44Q-106.71-5.98-106.40-5.70Q-106.09-5.41-105.74-5.27Q-105.38-5.13-104.88-5.08L-104.88-5.08ZM-113.77-16.93L-116.73-10.06L-110.93-10.06L-113.77-16.93Z"/><path fill="#ffffff" opacity="1" d="M-102.28-4.61L-102.28-17.40Q-102.28-18.47-102.73-19.12Q-103.18-19.77-104.41-19.77L-104.41-19.77L-104.65-19.77L-104.65-20.25L-103.11-20.25Q-101.95-20.25-101.20-19.87Q-100.45-19.49-99.91-18.83L-99.91-18.83L-91.61-8.52L-91.61-20.25L-90.66-20.25L-90.66-4.37L-91.14-4.37L-101.33-17.05L-101.33-4.61L-102.28-4.61Z"/><path fill="#ffffff" opacity="1" d="M-72.46-5.08L-72.46-4.61Q-72.87-4.49-73.41-4.49L-73.41-4.49Q-73.81-4.49-74.35-4.58Q-74.88-4.68-75.44-5.00Q-75.99-5.32-76.53-5.93Q-77.06-6.55-77.44-7.57L-77.44-7.57L-78.03-9.11L-84.67-9.11L-86.56-4.61L-87.63-4.61L-80.99-20.25L-80.28-20.25L-75.07-7.57Q-74.79-6.91-74.54-6.44Q-74.29-5.98-73.98-5.70Q-73.67-5.41-73.32-5.27Q-72.96-5.13-72.46-5.08L-72.46-5.08ZM-81.35-16.93L-84.31-10.06L-78.51-10.06L-81.35-16.93Z"/><path fill="#ffffff" opacity="1" d="M-52.53-4.01L-52.53-3.54Q-53.81-3.54-54.66-3.84Q-55.52-4.13-56.01-4.75Q-56.51-5.36-56.71-6.34Q-56.92-7.31-56.92-8.64L-56.92-8.64L-56.92-17.76L-62.84-4.61L-63.31-4.61L-69.48-18.00L-69.48-4.61L-70.42-4.61L-70.42-20.25L-68.17-20.25L-62.49-7.92L-56.92-20.25L-54.78-20.25L-54.78-8.64Q-54.78-6.48-54.24-5.25Q-53.69-4.01-52.53-4.01L-52.53-4.01Z"/><path fill="#ffffff" opacity="1" d="M-51.32-20.25L-41.23-20.25Q-40.61-20.25-40.22-20.08Q-39.83-19.92-39.60-19.66Q-39.38-19.40-39.29-19.05Q-39.21-18.71-39.21-18.35L-39.21-18.35L-39.21-16.57L-39.69-16.57Q-39.69-18.00-40.46-18.65Q-41.23-19.30-42.65-19.30L-42.65-19.30L-47.06-19.30L-47.06-13.14L-40.66-13.14L-40.66-12.19L-47.06-12.19L-47.06-5.55L-42.91-5.55Q-41.30-5.55-40.36-6.15Q-39.42-6.74-38.88-8.16L-38.88-8.16L-38.41-8.04L-39.24-5.79Q-39.42-5.25-39.86-4.93Q-40.30-4.61-41.01-4.61L-41.01-4.61L-49.19-4.61L-49.19-17.40Q-49.19-18.47-49.49-19.12Q-49.78-19.77-50.85-19.77L-50.85-19.77L-51.32-19.77L-51.32-20.25Z"/><path fill="#ffffff" opacity="1" d="M-30.66-12.66L-30.66-12.66Q-30.16-12.66-29.53-12.85Q-28.90-13.04-28.33-13.43Q-27.76-13.83-27.37-14.45Q-26.98-15.08-26.98-15.98L-26.98-15.98Q-26.98-16.91-27.37-17.57Q-27.76-18.23-28.33-18.64Q-28.90-19.04-29.53-19.23Q-30.16-19.42-30.66-19.42L-30.66-19.42Q-31.11-19.42-31.59-19.35Q-32.08-19.28-32.43-19.18L-32.43-19.18L-32.43-12.90Q-32.08-12.81-31.59-12.74Q-31.11-12.66-30.66-12.66ZM-28.40-7.81L-30.77-11.83L-32.43-11.83L-32.43-4.61L-34.57-4.61L-34.57-17.40Q-34.57-18.47-34.86-19.12Q-35.16-19.77-36.23-19.77L-36.23-19.77L-36.70-19.77L-36.70-20.25L-30.54-20.25Q-29.78-20.25-28.76-20.12Q-27.74-19.99-26.82-19.54Q-25.89-19.09-25.25-18.25Q-24.61-17.40-24.61-15.98L-24.61-15.98Q-24.61-14.96-24.97-14.25Q-25.32-13.54-25.88-13.08Q-26.44-12.62-27.11-12.36Q-27.79-12.10-28.40-11.95L-28.40-11.95L-25.92-7.81Q-25.47-7.05-25.07-6.55Q-24.68-6.05-24.30-5.73Q-23.93-5.41-23.55-5.27Q-23.17-5.13-22.72-5.08L-22.72-5.08L-22.72-4.61Q-22.91-4.51-23.30-4.44Q-23.69-4.37-24.14-4.37L-24.14-4.37Q-24.75-4.37-25.29-4.54Q-25.82-4.70-26.32-5.10Q-26.82-5.51-27.33-6.17Q-27.84-6.83-28.40-7.81L-28.40-7.81Z"/><path fill="#ffffff" opacity="1" d="M-20.23-7.45L-20.23-20.25L-18.09-20.25L-18.09-7.45Q-18.09-6.38-17.80-5.73Q-17.50-5.08-16.44-5.08L-16.44-5.08L-15.96-5.08L-15.96-4.61L-18.09-4.61Q-18.71-4.61-19.13-4.71Q-19.54-4.82-19.79-5.14Q-20.04-5.46-20.13-6.00Q-20.23-6.55-20.23-7.45L-20.23-7.45Z"/><path fill="#ffffff" opacity="1" d="M-0.68-15.27L-1.15-15.27Q-1.60-17.59-2.82-18.68Q-4.04-19.77-6.01-19.77L-6.01-19.77Q-7.17-19.77-8.20-19.38Q-9.23-18.99-10.01-18.10Q-10.80-17.21-11.25-15.77Q-11.70-14.32-11.70-12.19L-11.70-12.19Q-11.70-10.86-11.38-9.58Q-11.06-8.30-10.37-7.31Q-9.68-6.31-8.60-5.70Q-7.52-5.08-6.01-5.08L-6.01-5.08Q-4.23-5.08-2.95-5.93Q-1.67-6.79-0.68-8.40L-0.68-8.40L-0.20-8.04Q-0.77-6.93-1.47-6.18Q-2.17-5.44-2.97-4.97Q-3.78-4.51-4.72-4.32Q-5.65-4.13-6.72-4.13L-6.72-4.13Q-8.40-4.13-9.76-4.76Q-11.13-5.39-12.09-6.48Q-13.05-7.57-13.56-9.04Q-14.07-10.51-14.07-12.19L-14.07-12.19Q-14.07-13.97-13.49-15.52Q-12.90-17.07-11.91-18.23Q-10.91-19.40-9.57-20.06Q-8.24-20.72-6.72-20.72L-6.72-20.72Q-4.75-20.72-3.33-20.17Q-1.91-19.61-1.27-18.83L-1.27-18.83Q-0.82-18.28-0.75-17.31Q-0.68-16.34-0.68-15.27L-0.68-15.27Z"/><path fill="#ffffff" opacity="1" d="M16.98-5.08L16.98-4.61Q16.58-4.49 16.03-4.49L16.03-4.49Q15.63-4.49 15.10-4.58Q14.56-4.68 14.01-5.00Q13.45-5.32 12.92-5.93Q12.38-6.55 12.00-7.57L12.00-7.57L11.41-9.11L4.78-9.11L2.88-4.61L1.81-4.61L8.45-20.25L9.16-20.25L14.37-7.57Q14.66-6.91 14.91-6.44Q15.16-5.98 15.46-5.70Q15.77-5.41 16.13-5.27Q16.48-5.13 16.98-5.08L16.98-5.08ZM8.09-16.93L5.13-10.06L10.94-10.06L8.09-16.93Z"/><path fill="#ffffff" opacity="1" d="M19.59-4.61L19.59-17.40Q19.59-18.47 19.14-19.12Q18.69-19.77 17.46-19.77L17.46-19.77L17.22-19.77L17.22-20.25L18.76-20.25Q19.92-20.25 20.67-19.87Q21.41-19.49 21.96-18.83L21.96-18.83L30.25-8.52L30.25-20.25L31.20-20.25L31.20-4.37L30.73-4.37L20.54-17.05L20.54-4.61L19.59-4.61Z"/><path fill="#ffffff" opacity="1" d=""/><path fill="#ffffff" opacity="1" d="M46.84-11.83L46.84-11.83Q47.34-11.83 47.97-12.02Q48.60-12.21 49.17-12.66Q49.73-13.11 50.13-13.84Q50.52-14.56 50.52-15.63L50.52-15.63Q50.52-16.69 50.13-17.42Q49.73-18.14 49.17-18.59Q48.60-19.04 47.97-19.23Q47.34-19.42 46.84-19.42L46.84-19.42Q46.39-19.42 45.91-19.35Q45.42-19.28 45.07-19.18L45.07-19.18L45.07-12.07Q45.42-11.98 45.91-11.91Q46.39-11.83 46.84-11.83ZM45.07-11.01L45.07-4.61L42.93-4.61L42.93-17.40Q42.93-18.47 42.64-19.12Q42.34-19.77 41.27-19.77L41.27-19.77L40.80-19.77L40.80-20.25L46.96-20.25Q47.72-20.25 48.74-20.11Q49.76-19.96 50.68-19.48Q51.61-18.99 52.25-18.04Q52.89-17.10 52.89-15.51L52.89-15.51Q52.89-14.49 52.59-13.77Q52.29-13.04 51.82-12.55Q51.35-12.05 50.77-11.74Q50.18-11.43 49.60-11.28Q49.02-11.12 48.51-11.06Q48.00-11.01 47.67-11.01L47.67-11.01L45.07-11.01Z"/><path fill="#ffffff" opacity="1" d="M60.57-12.66L60.57-12.66Q61.06-12.66 61.69-12.85Q62.32-13.04 62.89-13.43Q63.46-13.83 63.85-14.45Q64.24-15.08 64.24-15.98L64.24-15.98Q64.24-16.91 63.85-17.57Q63.46-18.23 62.89-18.64Q62.32-19.04 61.69-19.23Q61.06-19.42 60.57-19.42L60.57-19.42Q60.12-19.42 59.63-19.35Q59.14-19.28 58.79-19.18L58.79-19.18L58.79-12.90Q59.14-12.81 59.63-12.74Q60.12-12.66 60.57-12.66ZM62.82-7.81L60.45-11.83L58.79-11.83L58.79-4.61L56.65-4.61L56.65-17.40Q56.65-18.47 56.36-19.12Q56.06-19.77 55.00-19.77L55.00-19.77L54.52-19.77L54.52-20.25L60.68-20.25Q61.44-20.25 62.46-20.12Q63.48-19.99 64.40-19.54Q65.33-19.09 65.97-18.25Q66.61-17.40 66.61-15.98L66.61-15.98Q66.61-14.96 66.25-14.25Q65.90-13.54 65.34-13.08Q64.78-12.62 64.11-12.36Q63.43-12.10 62.82-11.95L62.82-11.95L65.31-7.81Q65.76-7.05 66.15-6.55Q66.54-6.05 66.92-5.73Q67.30-5.41 67.68-5.27Q68.05-5.13 68.50-5.08L68.50-5.08L68.50-4.61Q68.32-4.51 67.92-4.44Q67.53-4.37 67.08-4.37L67.08-4.37Q66.47-4.37 65.93-4.54Q65.40-4.70 64.90-5.10Q64.40-5.51 63.90-6.17Q63.39-6.83 62.82-7.81L62.82-7.81Z"/><path fill="#ffffff" opacity="1" d="M70.99-7.45L70.99-20.25L73.13-20.25L73.13-7.45Q73.13-6.38 73.42-5.73Q73.72-5.08 74.79-5.08L74.79-5.08L75.26-5.08L75.26-4.61L73.13-4.61Q72.51-4.61 72.10-4.71Q71.68-4.82 71.43-5.14Q71.18-5.46 71.09-6.00Q70.99-6.55 70.99-7.45L70.99-7.45Z"/><path fill="#ffffff" opacity="1" d="M80.52-17.48L84.57-7.92Q85.17-9.30 85.56-10.18Q85.95-11.05 86.20-11.65Q86.45-12.24 86.61-12.64Q86.78-13.04 86.94-13.43Q87.11-13.83 87.30-14.30Q87.49-14.77 87.81-15.53Q88.13-16.29 88.60-17.42Q89.08-18.54 89.79-20.25L89.79-20.25L90.93-20.25L84.12-4.37L83.70-4.37L78.20-17.48Q77.91-18.14 77.66-18.60Q77.42-19.06 77.11-19.35Q76.80-19.63 76.44-19.77Q76.09-19.92 75.59-19.96L75.59-19.96L75.59-20.44Q75.69-20.44 75.96-20.46Q76.23-20.49 76.40-20.49L76.40-20.49Q76.82-20.49 77.37-20.39Q77.91-20.30 78.47-19.99Q79.03-19.68 79.56-19.09Q80.09-18.49 80.52-17.48L80.52-17.48Z"/><path fill="#ffffff" opacity="1" d="M105.78-5.08L105.78-4.61Q105.38-4.49 104.84-4.49L104.84-4.49Q104.43-4.49 103.90-4.58Q103.37-4.68 102.81-5.00Q102.25-5.32 101.72-5.93Q101.19-6.55 100.81-7.57L100.81-7.57L100.22-9.11L93.58-9.11L91.68-4.61L90.62-4.61L97.25-20.25L97.96-20.25L103.18-7.57Q103.46-6.91 103.71-6.44Q103.96-5.98 104.27-5.70Q104.58-5.41 104.93-5.27Q105.29-5.13 105.78-5.08L105.78-5.08ZM96.90-16.93L93.93-10.06L99.74-10.06L96.90-16.93Z"/><path fill="#ffffff" opacity="1" d="M106.85-20.25L117.87-20.25L117.87-19.30L112.54-19.30L112.54-4.61L110.41-4.61L110.41-19.30L108.27-19.30Q106.85-19.30 106.08-18.65Q105.31-18.00 105.31-16.57L105.31-16.57L104.84-16.57L104.84-18.35Q104.84-18.71 104.92-19.05Q105.00-19.40 105.23-19.66Q105.45-19.92 105.84-20.08Q106.24-20.25 106.85-20.25L106.85-20.25Z"/><path fill="#ffffff" opacity="1" d="M119.18-20.25L129.27-20.25Q129.89-20.25 130.28-20.08Q130.67-19.92 130.90-19.66Q131.12-19.40 131.20-19.05Q131.29-18.71 131.29-18.35L131.29-18.35L131.29-16.57L130.81-16.57Q130.81-18.00 130.04-18.65Q129.27-19.30 127.85-19.30L127.85-19.30L123.44-19.30L123.44-13.14L129.84-13.14L129.84-12.19L123.44-12.19L123.44-5.55L127.59-5.55Q129.20-5.55 130.14-6.15Q131.07-6.74 131.62-8.16L131.62-8.16L132.09-8.04L131.26-5.79Q131.07-5.25 130.63-4.93Q130.20-4.61 129.48-4.61L129.48-4.61L121.31-4.61L121.31-17.40Q121.31-18.47 121.01-19.12Q120.72-19.77 119.65-19.77L119.65-19.77L119.18-19.77L119.18-20.25Z"/><path fill="#ffffff" opacity="1" d="M-78.78 16.65L-78.78 3.85L-76.65 3.85L-76.65 16.65Q-76.65 17.72-76.35 18.37Q-76.05 19.02-74.99 19.02L-74.99 19.02L-74.51 19.02L-74.51 19.50L-76.65 19.50Q-77.26 19.50-77.68 19.39Q-78.09 19.28-78.34 18.96Q-78.59 18.64-78.68 18.10Q-78.78 17.55-78.78 16.65L-78.78 16.65Z"/><path fill="#ffffff" opacity="1" d="M-70.89 19.50L-70.89 6.70Q-70.89 5.63-71.34 4.98Q-71.79 4.33-73.02 4.33L-73.02 4.33L-73.26 4.33L-73.26 3.85L-71.72 3.85Q-70.55 3.85-69.81 4.23Q-69.06 4.61-68.52 5.28L-68.52 5.28L-60.22 15.59L-60.22 3.85L-59.27 3.85L-59.27 19.73L-59.75 19.73L-69.94 7.05L-69.94 19.50L-70.89 19.50Z"/><path fill="#ffffff" opacity="1" d="M-52.38 6.63L-48.32 16.18Q-47.73 14.80-47.34 13.93Q-46.95 13.05-46.70 12.46Q-46.45 11.87-46.29 11.46Q-46.12 11.06-45.95 10.67Q-45.79 10.28-45.60 9.80Q-45.41 9.33-45.09 8.57Q-44.77 7.81-44.30 6.69Q-43.82 5.56-43.11 3.85L-43.11 3.85L-41.97 3.85L-48.77 19.73L-49.20 19.73L-54.70 6.63Q-54.98 5.96-55.23 5.50Q-55.48 5.04-55.79 4.76Q-56.10 4.47-56.45 4.33Q-56.81 4.19-57.31 4.14L-57.31 4.14L-57.31 3.66Q-57.21 3.66-56.94 3.64Q-56.67 3.62-56.50 3.62L-56.50 3.62Q-56.07 3.62-55.53 3.71Q-54.98 3.81-54.43 4.12Q-53.87 4.42-53.34 5.02Q-52.80 5.61-52.38 6.63L-52.38 6.63Z"/><path fill="#ffffff" opacity="1" d="M-40.43 3.85L-30.34 3.85Q-29.72 3.85-29.33 4.02Q-28.94 4.19-28.71 4.45Q-28.49 4.71-28.40 5.05Q-28.32 5.40-28.32 5.75L-28.32 5.75L-28.32 7.53L-28.80 7.53Q-28.80 6.11-29.57 5.45Q-30.34 4.80-31.76 4.80L-31.76 4.80L-36.17 4.80L-36.17 10.96L-29.77 10.96L-29.77 11.91L-36.17 11.91L-36.17 18.55L-32.02 18.55Q-30.41 18.55-29.47 17.96Q-28.53 17.36-27.99 15.94L-27.99 15.94L-27.52 16.06L-28.35 18.31Q-28.53 18.86-28.97 19.18Q-29.41 19.50-30.12 19.50L-30.12 19.50L-38.30 19.50L-38.30 6.70Q-38.30 5.63-38.60 4.98Q-38.89 4.33-39.96 4.33L-39.96 4.33L-40.43 4.33L-40.43 3.85Z"/><path fill="#ffffff" opacity="1" d="M-14.58 15.51L-14.58 15.51Q-14.58 16.51-14.92 17.32Q-15.26 18.12-15.90 18.70Q-16.54 19.28-17.46 19.59Q-18.37 19.90-19.51 19.90L-19.51 19.90Q-20.48 19.90-21.44 19.70Q-22.40 19.50-23.17 19.12Q-23.94 18.74-24.42 18.20Q-24.91 17.67-24.91 17.01L-24.91 17.01L-24.91 14.47L-24.48 14.47Q-24.08 16.87-22.91 17.91Q-21.73 18.95-19.72 18.95L-19.72 18.95Q-19.10 18.95-18.55 18.80Q-17.99 18.64-17.56 18.34Q-17.14 18.03-16.87 17.58Q-16.61 17.13-16.61 16.53L-16.61 16.53Q-16.61 15.49-17.27 14.76Q-17.92 14.02-19.22 13.26L-19.22 13.26L-22.14 11.53Q-23.65 10.63-24.28 9.71Q-24.91 8.78-24.91 7.46L-24.91 7.46Q-24.91 6.53-24.58 5.80Q-24.25 5.06-23.64 4.53Q-23.04 4.00-22.20 3.71Q-21.35 3.43-20.31 3.43L-20.31 3.43Q-19.43 3.43-18.52 3.62Q-17.61 3.81-16.87 4.17Q-16.14 4.54-15.67 5.08Q-15.19 5.61-15.19 6.27L-15.19 6.27L-15.19 8.81L-15.62 8.81Q-16.02 6.41-17.16 5.40Q-18.30 4.38-20.31 4.38L-20.31 4.38Q-20.83 4.38-21.33 4.54Q-21.83 4.71-22.21 5.02Q-22.59 5.32-22.82 5.77Q-23.06 6.22-23.06 6.77L-23.06 6.77Q-23.06 7.29-22.89 7.69Q-22.73 8.10-22.40 8.45Q-22.06 8.81-21.57 9.15Q-21.07 9.50-20.43 9.87L-20.43 9.87L-17.51 11.60Q-16.76 12.05-16.20 12.47Q-15.64 12.88-15.29 13.35Q-14.93 13.81-14.75 14.33Q-14.58 14.85-14.58 15.51Z"/><path fill="#ffffff" opacity="1" d="M-10.40 3.85L0.62 3.85L0.62 4.80L-4.72 4.80L-4.72 19.50L-6.85 19.50L-6.85 4.80L-8.98 4.80Q-10.40 4.80-11.17 5.45Q-11.94 6.11-11.94 7.53L-11.94 7.53L-12.42 7.53L-12.42 5.75Q-12.42 5.40-12.34 5.05Q-12.25 4.71-12.03 4.45Q-11.80 4.19-11.41 4.02Q-11.02 3.85-10.40 3.85L-10.40 3.85Z"/><path fill="#ffffff" opacity="1" d="M21.47 20.09L21.47 20.56Q20.19 20.56 19.34 20.27Q18.49 19.97 17.99 19.35Q17.49 18.74 17.29 17.77Q17.09 16.79 17.09 15.47L17.09 15.47L17.09 6.34L11.16 19.50L10.69 19.50L4.53 6.11L4.53 19.50L3.58 19.50L3.58 3.85L5.83 3.85L11.52 16.18L17.09 3.85L19.22 3.85L19.22 15.47Q19.22 17.62 19.77 18.86Q20.31 20.09 21.47 20.09L21.47 20.09Z"/><path fill="#ffffff" opacity="1" d="M22.68 3.85L32.78 3.85Q33.39 3.85 33.78 4.02Q34.18 4.19 34.40 4.45Q34.63 4.71 34.71 5.05Q34.79 5.40 34.79 5.75L34.79 5.75L34.79 7.53L34.32 7.53Q34.32 6.11 33.55 5.45Q32.78 4.80 31.36 4.80L31.36 4.80L26.95 4.80L26.95 10.96L33.35 10.96L33.35 11.91L26.95 11.91L26.95 18.55L31.09 18.55Q32.71 18.55 33.64 17.96Q34.58 17.36 35.12 15.94L35.12 15.94L35.60 16.06L34.77 18.31Q34.58 18.86 34.14 19.18Q33.70 19.50 32.99 19.50L32.99 19.50L24.81 19.50L24.81 6.70Q24.81 5.63 24.52 4.98Q24.22 4.33 23.15 4.33L23.15 4.33L22.68 4.33L22.68 3.85Z"/><path fill="#ffffff" opacity="1" d="M39.53 19.50L39.53 6.70Q39.53 5.63 39.08 4.98Q38.63 4.33 37.40 4.33L37.40 4.33L37.16 4.33L37.16 3.85L38.70 3.85Q39.86 3.85 40.61 4.23Q41.36 4.61 41.90 5.28L41.90 5.28L50.20 15.59L50.20 3.85L51.14 3.85L51.14 19.73L50.67 19.73L40.48 7.05L40.48 19.50L39.53 19.50Z"/><path fill="#ffffff" opacity="1" d="M56.31 3.85L67.33 3.85L67.33 4.80L62.00 4.80L62.00 19.50L59.87 19.50L59.87 4.80L57.73 4.80Q56.31 4.80 55.54 5.45Q54.77 6.11 54.77 7.53L54.77 7.53L54.30 7.53L54.30 5.75Q54.30 5.40 54.38 5.05Q54.46 4.71 54.69 4.45Q54.91 4.19 55.30 4.02Q55.70 3.85 56.31 3.85L56.31 3.85Z"/><path fill="#ffffff" opacity="1" d="M79.87 15.51L79.87 15.51Q79.87 16.51 79.53 17.32Q79.18 18.12 78.54 18.70Q77.90 19.28 76.99 19.59Q76.08 19.90 74.94 19.90L74.94 19.90Q73.97 19.90 73.01 19.70Q72.05 19.50 71.28 19.12Q70.51 18.74 70.02 18.20Q69.54 17.67 69.54 17.01L69.54 17.01L69.54 14.47L69.96 14.47Q70.37 16.87 71.54 17.91Q72.71 18.95 74.73 18.95L74.73 18.95Q75.34 18.95 75.90 18.80Q76.46 18.64 76.88 18.34Q77.31 18.03 77.57 17.58Q77.83 17.13 77.83 16.53L77.83 16.53Q77.83 15.49 77.18 14.76Q76.53 14.02 75.22 13.26L75.22 13.26L72.31 11.53Q70.79 10.63 70.16 9.71Q69.54 8.78 69.54 7.46L69.54 7.46Q69.54 6.53 69.87 5.80Q70.20 5.06 70.80 4.53Q71.41 4.00 72.25 3.71Q73.09 3.43 74.13 3.43L74.13 3.43Q75.01 3.43 75.92 3.62Q76.84 3.81 77.57 4.17Q78.30 4.54 78.78 5.08Q79.25 5.61 79.25 6.27L79.25 6.27L79.25 8.81L78.83 8.81Q78.42 6.41 77.29 5.40Q76.15 4.38 74.13 4.38L74.13 4.38Q73.61 4.38 73.11 4.54Q72.62 4.71 72.24 5.02Q71.86 5.32 71.62 5.77Q71.38 6.22 71.38 6.77L71.38 6.77Q71.38 7.29 71.55 7.69Q71.72 8.10 72.05 8.45Q72.38 8.81 72.88 9.15Q73.38 9.50 74.02 9.87L74.02 9.87L76.93 11.60Q77.69 12.05 78.25 12.47Q78.80 12.88 79.16 13.35Q79.51 13.81 79.69 14.33Q79.87 14.85 79.87 15.51Z"/></g><g transform="matrix(1.5945722889750815 0 0 1.5945722889750815 249.99999999999997 195.56283708322349)"  >
<g style=""   >
		<g transform="matrix(1 0 0 1 13.598999999999993 -1.0930000000000035)"  >
<polygon style="stroke: none; stroke-width: 1; stroke-dasharray: none; stroke-linecap: butt; stroke-dashoffset: 0; stroke-linejoin: miter; stroke-miterlimit: 4; fill: rgb(255,255,255); fill-rule: nonzero; opacity: 1;"  points="1.3724999999999987,-1.0519999999999996 0.7654999999999994,1.0519999999999996 -1.3724999999999987,0.31400000000000006 -0.7245000000000026,-1.0519999999999996 " />
</g>
		<g transform="matrix(1 0 0 1 12.542999999999996 -34.171)"  >
<polygon style="stroke: none; stroke-width: 1; stroke-dasharray: none; stroke-linecap: butt; stroke-dashoffset: 0; stroke-linejoin: miter; stroke-miterlimit: 4; fill: rgb(255,255,255); fill-rule: nonzero; opacity: 1;"  points="2.391500000000004,-1.7839999999999998 2.165499999999991,0.4379999999999997 -2.391500000000004,2.87 -1.9415000000000013,-1.8470000000000004 -0.19750000000000156,-2.87 -0.3205000000000062,-0.7640000000000002 " />
</g>
		<g transform="matrix(1 0 0 1 8.060499999999998 -2.293499999999998)"  >
<polygon style="stroke: none; stroke-width: 1; stroke-dasharray: none; stroke-linecap: butt; stroke-dashoffset: 0; stroke-linejoin: miter; stroke-miterlimit: 4; fill: rgb(255,255,255); fill-rule: nonzero; opacity: 1;"  points="-3.283999999999999,0.4775000000000027 -0.36999999999999744,-0.6645000000000003 -1.5,-1.6524999999999999 1.5360000000000014,-1.4874999999999936 3.283999999999999,0.17750000000000554 -2.378,1.6524999999999999 " />
</g>
		<g transform="matrix(1 0 0 1 1.122999999999994 1.0004999999999953)"  >
<polygon style="stroke: none; stroke-width: 1; stroke-dasharray: none; stroke-linecap: butt; stroke-dashoffset: 0; stroke-linejoin: miter; stroke-miterlimit: 4; fill: rgb(255,255,255); fill-rule: nonzero; opacity: 1;"  points="-1.5545000000000009,-0.49549999999999983 1.0984999999999978,-1.160499999999999 1.5545000000000009,0.7615000000000052 -0.8375000000000021,1.160499999999999 " />
</g>
		<g transform="matrix(1 0 0 1 -4.309500000000007 -8.884)"  >
<polygon style="stroke: none; stroke-width: 1; stroke-dasharray: none; stroke-linecap: butt; stroke-dashoffset: 0; stroke-linejoin: miter; stroke-miterlimit: 4; fill: rgb(255,255,255); fill-rule: nonzero; opacity: 1;"  points="0.5850000000000009,-0.7530000000000001 0.9690000000000012,0.4519999999999982 -0.7749999999999986,0.7530000000000001 -0.9690000000000012,-0.27199999999999847 " />
</g>
		<g transform="matrix(1 0 0 1 -1.3985000000000056 -3.7825000000000095)"  >
<polygon style="stroke: none; stroke-width: 1; stroke-dasharray: none; stroke-linecap: butt; stroke-dashoffset: 0; stroke-linejoin: miter; stroke-miterlimit: 4; fill: rgb(255,255,255); fill-rule: nonzero; opacity: 1;"  points="-5.434999999999999,-0.9835000000000029 -2.392999999999997,-2.3895000000000017 5.434999999999999,0.13549999999999685 4.622000000000003,2.3895000000000017 -1.9419999999999966,-0.17950000000000088 -5.209,0.6145000000000032 " />
</g>
		<g transform="matrix(1 0 0 1 0.5005000000000095 0.5015000000000072)"  >
<path style="stroke: none; stroke-width: 1; stroke-dasharray: none; stroke-linecap: butt; stroke-dashoffset: 0; stroke-linejoin: miter; stroke-miterlimit: 4; fill: rgb(255,255,255); fill-rule: nonzero; opacity: 1;"  transform=" translate(-50.00200000000001, -50.00050000000001)" d="M 42.693 23.081 l 2.91 -0.992 l -2.522 -1.234 l -2.74 0.712 l -1.744 -2.234 l -7.011 3.238 l 0.668 0.278 l 3.492 0.111 l 1.267 -0.269 l -1.847 2.194 l 2.008 2.978 h 1.938 l -0.514 -2.772 l 0.905 -1.842 l 0.819 -0.06 l -0.111 0.521 l 1.254 2.547 l 2.029 -0.483 l 0.47 -0.564 L 42.693 23.081 z M 46.312 58.105 l -5.259 -2.808 v -1.981 h -3.103 l -0.646 -2.294 l -6.532 -0.724 l -6.212 -5.171 l 1.455 -2.677 l -4.785 -5.69 l 0.803 6.287 l -3.325 -5.591 l 0.419 -2.709 l -2.265 -2.826 l 0.095 -6.374 l 4.175 -3.797 l -0.838 -4.06 l -1.265 2.794 l -0.262 -1.048 l -1.454 -4.034 l 0.841 -1.411 l 1.229 -6.56 L 17.667 4.66 l -0.292 0.574 l -1.513 1.685 H 10.91 l 3.491 -1.931 l 0.329 -1.857 l 7.821 -3.132 l 1.554 3.188 l 5.757 0.783 l 4.942 2.471 l 1.506 -1.088 l -4.4 -2.811 l 2.585 -1.159 l 1.941 3.246 l 1.253 -0.876 l 2.112 1.399 l -4.013 3.97 l 0.348 3.452 l 4.657 -0.118 l 0.946 3.527 l 2.852 1.329 l 1.011 -1.724 l -1.273 -3.614 l 2.069 -1.807 l -2.108 -0.881 l 0.214 -3.132 l 4.484 1.044 l 1.163 3.896 l 1.293 -1.448 V 6.482 l 4.309 5.689 h 2.89 l -0.213 2.491 h -5.693 l -3.535 6.096 l 4.357 -3.609 l 0.083 2.606 l 2.329 -0.424 l -1.381 2.792 l -7.029 3.812 l -2.625 4.935 l 1.075 2.247 l -5.475 4.408 l 0.948 5.019 l -3.964 1.043 l -2.243 -6.781 l -5.001 1.285 l -1.336 5.176 l 3.795 5.453 l 3.622 -0.043 l 1.289 -2.61 l 3.024 0.521 l -1.387 2.895 l 4.749 -0.083 l 0.562 4.049 l 4.005 2.33 l 2.932 -1.966 l 3.217 4.437 l 3.036 -2.835 l 6.216 -1.385 l 1.293 1.63 l 5.947 -1.088 l 4.271 4.634 l 3.171 -0.416 l 1.352 4.749 l 0.647 -0.841 l 2.16 0.099 l 6.253 2.009 l -0.326 4.571 l -3.946 3.052 l -1.357 6.218 l -6.661 4.515 l -2.848 -1.565 v 3.546 l -4.266 4.756 l -5.562 2.829 v 2.949 l -3.366 1.079 l 0.325 3.246 l -4.077 -2.882 l 2.977 -3.792 l -2.071 -1.804 l 2.455 -10.715 l -5.689 -1.862 l -3.012 -5.836 l -2.596 -2.289 l 2.118 -1.862 l -1.102 -1.986 l 4.203 -3.432 l -2.459 -3.249 l 1.554 -1.266 l -1.855 -2.281 l -4.483 2.281 L 46.312 58.105 z" stroke-linecap="round" />
</g>
</g>
</g>
</svg>